<?xml version="1.0" standalone="no"?>
<!DOCTYPE svg PUBLIC "-//W3C//DTD SVG 20010904//EN"
 "http://www.w3.org/TR/2001/REC-SVG-20010904/DTD/svg10.dtd">
<svg version="1.0" xmlns="http://www.w3.org/2000/svg"
 width="512.000000pt" height="512.000000pt" viewBox="0 0 512.000000 512.000000"
 preserveAspectRatio="xMidYMid meet">
<metadata>
Created by potrace 1.11, written by Peter Selinger 2001-2013
</metadata>
<g transform="translate(0.000000,512.000000) scale(0.100000,-0.100000)"
fill="#000000" stroke="none">
<path d="M2080 3844 c-349 -129 -704 -259 -788 -291 -93 -34 -149 -59 -140
-63 24 -13 1565 -580 1576 -580 6 0 126 43 268 95 141 52 259 95 261 95 1 0 3
10 3 23 1 12 7 33 14 47 47 84 -166 269 -383 334 -49 14 -58 14 -98 1 -90 -31
-205 8 -211 72 -6 57 84 101 169 84 24 -5 79 -16 121 -24 94 -19 244 -80 319
-130 99 -66 147 -114 181 -185 18 -37 39 -67 46 -68 6 -1 20 -2 31 -2 10 -1
33 -12 52 -25 l34 -23 385 143 c212 78 389 144 393 145 9 4 -1575 589 -1590
587 -4 0 -294 -106 -643 -235z"/>
<path d="M1660 2846 l0 -346 48 -30 c124 -80 375 -184 549 -230 355 -93 668
-79 1043 45 105 35 327 138 408 188 l42 27 0 335 c0 184 -2 335 -4 335 -3 0
-43 -14 -90 -31 -81 -29 -86 -33 -86 -59 0 -16 -5 -40 -11 -52 -8 -19 0 -64
40 -225 54 -212 58 -242 40 -274 -14 -28 -105 -69 -150 -69 -42 0 -40 -4 -60
125 -6 44 -15 84 -19 88 -4 5 -11 -26 -15 -69 -4 -43 -10 -86 -14 -97 -6 -17
-8 -17 -20 -3 -16 19 -19 49 -30 279 -7 161 -10 180 -28 199 l-21 20 -277
-101 -277 -102 -522 192 c-286 105 -527 194 -533 197 -10 3 -13 -69 -13 -342z"/>
<path d="M1050 2444 c-105 -33 -201 -143 -235 -268 -24 -89 -18 -223 14 -288
24 -50 71 -102 111 -123 14 -7 99 -29 190 -50 189 -42 653 -159 694 -175 43
-16 49 -12 28 18 -25 36 -30 51 -42 128 -28 175 68 372 213 434 l52 23 -345
117 c-190 64 -396 136 -458 159 -122 44 -152 48 -222 25z"/>
<path d="M2344 2039 c-53 -15 -127 -71 -161 -122 -88 -131 -114 -343 -54 -440
17 -28 33 -36 113 -60 122 -36 512 -172 708 -245 l155 -59 7 110 c10 150 31
248 73 334 66 134 148 174 285 138 100 -26 160 -117 160 -242 -1 -177 -93
-323 -205 -323 -103 0 -173 103 -147 215 l10 40 1 -48 c3 -122 92 -193 180
-141 90 53 138 261 82 360 -28 50 -49 64 -111 71 -93 11 -164 -56 -211 -202
-32 -97 -32 -222 -1 -282 33 -64 82 -96 152 -101 46 -3 69 0 104 17 155 76
254 347 193 528 -22 63 -83 134 -134 155 -21 9 -146 42 -278 73 -252 59 -486
120 -720 186 -179 51 -165 48 -201 38z"/>
<path d="M1740 1389 l-135 -130 60 6 c33 3 81 9 107 12 l47 5 36 -71 36 -72
129 148 c71 81 126 151 122 154 -6 6 -252 79 -262 79 -3 0 -66 -59 -140 -131z"/>
</g>
</svg>
